<?xml version="1.0" encoding="UTF-8"?>
<svg width="1024px" height="1024px" viewBox="0 0 1024 1024" version="1.1" xmlns="http://www.w3.org/2000/svg" xmlns:xlink="http://www.w3.org/1999/xlink">
    <title>2 - Layer</title>
    <g id="Template---App-Icons" stroke="none" stroke-width="1" fill="none" fill-rule="evenodd">
        <g id="2---Layer" fill="#FF9500" fill-rule="nonzero">
            <g id="C" transform="translate(458, 508) rotate(2) translate(-458, -508)translate(103, 95)">
                <path d="M593.481595,204.27957 C573.154397,176.154122 546.656442,155.615143 513.98773,142.662634 C481.319018,129.710125 449.376278,123.233871 418.159509,123.233871 C378.231084,123.233871 341.932515,130.635305 309.263804,145.438172 C276.595092,160.241039 248.463701,180.594982 224.869632,206.5 C201.275562,232.405018 183.126278,262.750896 170.421779,297.537634 C157.71728,332.324373 151.365031,370.071685 151.365031,410.77957 C151.365031,453.707885 157.535787,492.935484 169.877301,528.462366 C182.218814,563.989247 199.82362,594.520161 222.691718,620.055108 C245.559816,645.590054 272.965235,665.388889 304.907975,679.451613 C336.850716,693.514337 372.786299,700.545699 412.714724,700.545699 C454.095092,700.545699 490.756646,692.219086 522.699387,675.56586 C554.642127,658.912634 580.41411,636.893369 600.015337,609.508065 L710,688.333333 C675.879346,732.001792 634.135992,765.863351 584.769939,789.918011 C535.403885,813.97267 477.689162,826 411.625767,826 C351.370143,826 296.014826,815.823029 245.559816,795.469086 C195.104806,775.115143 151.728016,746.619624 115.429448,709.982527 C79.1308793,673.34543 50.8179959,629.676971 30.4907975,578.977151 C10.1635992,528.27733 0,472.21147 0,410.77957 C0,347.867384 10.7080777,291.06138 32.1242331,240.361559 C53.5403885,189.661738 82.942229,146.548387 120.329755,111.021505 C157.71728,75.4946237 201.820041,48.109319 252.638037,28.8655914 C303.456033,9.6218638 358.629857,0 418.159509,0 C442.842536,0 468.614519,2.40546595 495.47546,7.21639785 C522.336401,12.0273297 548.108384,19.4287634 572.791411,29.4206989 C597.474438,39.4126344 620.705521,51.8100358 642.484663,66.6129032 C664.263804,81.4157706 682.776074,99.1792115 698.021472,119.903226 L593.481595,204.27957 Z" id="Path"></path>
            </g>
        </g>
    </g>
</svg>